Coordinates
version=1
nRows=65
nColumns=12
inDegrees=yes

Units are S.I. units (second, meters, Newtons, ...)
Angles are in degrees

endheader
time	SC_y	SC_z	SC_x	AC_y	AC_z	AC_x	GH_y	GH_z	GH_yy	EL_x	PS_y
       0.0              -44.84          4.774           28.4          64.08            8.6          2.894          29.92         -4.164          140.2          125.3          131.3
   0.03256              -44.84          4.779           28.4          64.07          8.599          2.896          29.92         -4.165          140.2          125.3          131.3
   0.06511              -44.84          4.785           28.4          64.07          8.598          2.898          29.91         -4.166          140.2          125.3          131.3
   0.09767              -44.84           4.79          28.41          64.07          8.597            2.9          29.91         -4.167          140.2          125.3          131.3
    0.1302              -44.84          4.797          28.41          64.06          8.596          2.902           29.9         -4.168          140.2          125.3          131.3
    0.1628              -44.84          4.803          28.42          64.06          8.596          2.905           29.9          -4.17          140.1          125.3          131.3
    0.1953              -44.84           4.81          28.42          64.05          8.595          2.907           29.9         -4.171          140.1          125.3          131.2
    0.2279              -44.84          4.817          28.43          64.05          8.594           2.91          29.89         -4.172          140.1          125.3          131.2
    0.2605              -44.84          4.825          28.43          64.04          8.592          2.913          29.89         -4.174          140.1          125.3          131.2
     0.293              -44.84          4.834          28.44          64.04          8.591          2.916          29.88         -4.175          140.1          125.3          131.2
    0.3256              -44.84          4.843          28.45          64.03           8.59           2.92          29.88         -4.177          140.1          125.3          131.2
    0.3581              -44.84          4.853          28.45          64.02          8.589          2.923          29.87         -4.179          140.1          125.4          131.2
    0.3907              -44.84          4.863          28.46          64.01          8.587          2.927          29.86         -4.181          140.1          125.4          131.1
    0.4232              -44.84          4.875          28.47          64.01          8.585          2.932          29.86         -4.183          140.1          125.4          131.1
    0.4558              -44.85          4.887          28.48           64.0          8.584          2.936          29.85         -4.185          140.1          125.4          131.1
    0.4884              -44.85            4.9          28.49          63.99          8.582          2.941          29.84         -4.187          140.0          125.4          131.1
    0.5209              -44.85          4.915           28.5          63.98           8.58          2.947          29.83          -4.19          140.0          125.4          131.0
    0.5535              -44.85          4.931          28.51          63.97          8.577          2.953          29.82         -4.193          140.0          125.4          131.0
     0.586              -44.85          4.948          28.52          63.95          8.575          2.959          29.81         -4.196          140.0          125.4          131.0
    0.6186              -44.85          4.967          28.53          63.94          8.572          2.967           29.8           -4.2          140.0          125.4          130.9
    0.6511              -44.85          4.988          28.55          63.93          8.569          2.974          29.79         -4.203          140.0          125.4          130.9
    0.6837              -44.85          5.011          28.57          63.91          8.566          2.983          29.77         -4.208          139.9          125.4          130.8
    0.7163              -44.85          5.036          28.58          63.89          8.562          2.993          29.76         -4.212          139.9          125.4          130.8
    0.7488              -44.85          5.064           28.6          63.87          8.559          3.003          29.74         -4.217          139.9          125.4          130.7
    0.7814              -44.85          5.096          28.63          63.85          8.554          3.015          29.72         -4.223          139.8          125.4          130.7
    0.8139              -44.86          5.131          28.65          63.83          8.549          3.028           29.7          -4.23          139.8          125.5          130.6
    0.8465              -44.86           5.17          28.68           63.8          8.544          3.043          29.67         -4.237          139.8          125.5          130.5
     0.879              -44.86          5.213          28.71          63.77          8.537           3.06          29.65         -4.245          139.7          125.5          130.4
    0.9116              -44.86          5.263          28.75          63.73           8.53          3.078          29.62         -4.254          139.7          125.5          130.3
    0.9441              -44.86          5.319          28.79          63.69          8.522            3.1          29.58         -4.264          139.6          125.5          130.2
    0.9767              -44.87          5.384          28.83          63.65          8.513          3.124          29.54         -4.276          139.6          125.6          130.1
     1.009              -44.87          5.457          28.89          63.59          8.503          3.152          29.49         -4.289          139.5          125.6          129.9
     1.042              -44.87          5.543          28.95          63.53          8.491          3.184          29.44         -4.305          139.4          125.6          129.7
     1.074              -44.88          5.642          29.02          63.46          8.477          3.221          29.38         -4.323          139.3          125.7          129.5
     1.107              -44.88          5.757           29.1          63.38           8.46          3.265          29.31         -4.344          139.2          125.7          129.3
     1.139              -44.89          5.894           29.2          63.29          8.441          3.317          29.22         -4.369          139.0          125.8          129.0
     1.172               -44.9          6.056          29.32          63.17          8.418          3.378          29.12         -4.399          138.9          125.8          128.7
     1.205               -44.9           6.25          29.46          63.03           8.39          3.452           29.0         -4.434          138.7          125.9          128.3
     1.237              -44.92          6.486          29.63          62.87          8.357           3.54          28.86         -4.477          138.4          126.0          127.8
      1.27              -44.93          6.773          29.83          62.66          8.316          3.649          28.68          -4.53          138.1          126.1          127.2
     1.302              -44.94          7.128          30.09          62.41          8.266          3.783          28.46         -4.595          137.8          126.2          126.5
     1.335              -44.96           7.57          30.41           62.1          8.203           3.95          28.18         -4.676          137.3          126.4          125.6
     1.367              -44.99          8.127          30.81          61.71          8.124          4.161          27.84         -4.778          136.8          126.6          124.4
       1.4              -45.02          8.835          31.32          61.21          8.024          4.429           27.4         -4.907          136.0          126.9          123.0
     1.433              -45.06          9.742          31.97          60.57          7.895          4.771          26.84         -5.073          135.1          127.3          121.1
     1.465              -45.11          10.91           32.8          59.74           7.73          5.211          26.11         -5.286          133.9          127.7          118.7
     1.498              -45.17          12.39          33.87          58.69          7.519          5.772          25.19         -5.558          132.4          128.3          115.7
      1.53              -45.26          14.26          35.22          57.37          7.254          6.479          24.03           -5.9          130.5          129.0          111.8
     1.563              -45.36          16.54          36.85          55.76          6.932          7.339          22.62         -6.316          128.2          129.9          107.2
     1.595              -45.47          19.18          38.75           53.9          6.557          8.337          20.98         -6.799          125.5          130.9          101.8
     1.628               -45.6          22.03          40.81          51.88          6.152          9.417          19.21         -7.322          122.6          132.0          95.89
      1.66              -45.72          24.89          42.86          49.86          5.747           10.5          17.44         -7.845          119.7          133.1          90.02
     1.693              -45.84          27.53          44.76          47.99          5.372          11.49           15.8         -8.328          117.0          134.2          84.61
     1.726              -45.94          29.81           46.4          46.38          5.049          12.35          14.38         -8.744          114.7          135.1          79.93
     1.758              -46.02          31.68          47.74          45.06          4.784          13.06          13.23         -9.086          112.8          135.8           76.1
     1.791              -46.09          33.16          48.81          44.01          4.574          13.62           12.3         -9.358          111.3          136.4          73.05
     1.823              -46.14          34.32          49.64          43.19          4.409          14.06          11.58         -9.571          110.1          136.8          70.66
     1.856              -46.18          35.23           50.3          42.55           4.28          14.41          11.02         -9.736          109.2          137.2           68.8
     1.888              -46.21          35.94          50.81          42.05           4.18          14.67          10.58         -9.866          108.4          137.4          67.35
     1.921              -46.23           36.5          51.21          41.65          4.101          14.88          10.23         -9.968          107.9          137.7           66.2
     1.953              -46.25          36.94          51.52          41.34          4.038          15.05          9.959         -10.05          107.4          137.8          65.29
     1.986              -46.27          37.29          51.78          41.09          3.988          15.18          9.739         -10.11          107.1          138.0          64.57
     2.019              -46.28          37.58          51.99          40.89          3.947          15.29          9.561         -10.17          106.8          138.1          63.98
     2.051              -46.29          37.82          52.15          40.72          3.914          15.38          9.415         -10.21          106.5          138.2          63.49
     2.084               -46.3          38.01          52.29          40.58          3.886          15.46          9.294         -10.24          106.3          138.2           63.1
